<svg width="28" height="20" viewBox="0 0 28 20" fill="none" xmlns="http://www.w3.org/2000/svg">
<path fill-rule="evenodd" clip-rule="evenodd" d="M28 14.9077V9.94803H23.7908C20.2169 9.94803 19.5815 9.92702 19.5815 9.80916C19.5815 9.73282 19.6346 9.3307 19.6996 8.91555C19.9919 7.04567 21.2013 5.19105 22.857 4.07329C24.1552 3.19689 25.4349 2.72708 27.0151 2.54688L28 2.43447V1.23161V0.0287476L27.3713 0.0300121C27.0256 0.0306931 26.2999 0.113062 25.7587 0.212934C23.5675 0.61729 21.7649 1.48212 20.1734 2.89241C18.6414 4.25018 17.7403 5.62128 17.1454 7.49981C16.9172 8.22042 16.9078 8.44691 16.8738 14.0568L16.8386 19.8673H22.4193H28V14.9077ZM11.163 14.9077V9.94803H6.99281H2.8226L2.88131 9.18609C2.9503 8.2918 3.41911 6.99403 3.96194 6.19523C5.38368 4.10285 7.74632 2.7654 10.4797 2.50575L11.163 2.44088V1.22042V-3.8147e-05L10.2064 0.0578232C8.85931 0.139318 7.69155 0.433882 6.29779 1.04392C3.30978 2.35151 1.25621 4.58627 0.360247 7.50526L0.0731411 8.44069L0.0365162 14.154L0 19.8673H5.58146H11.163V14.9077ZM19.5815 14.9563V12.4765H22.3695H25.1574V14.9563V17.4361H22.3695H19.5815V14.9563ZM2.85387 14.9563V12.4765H5.64181H8.42975V14.9563V17.4361H5.64181H2.85387V14.9563Z" fill="#F37825"/>
</svg>
