<svg width="24" height="18" viewBox="0 0 24 18" fill="none" xmlns="http://www.w3.org/2000/svg">
<path fill-rule="evenodd" clip-rule="evenodd" d="M0 12.7781V8.52693H3.60792C6.67119 8.52693 7.21585 8.50893 7.21585 8.4079C7.21585 8.34247 7.1703 7.99779 7.11464 7.64195C6.86405 6.03919 5.8275 4.44952 4.40832 3.49144C3.29558 2.74024 2.19868 2.33755 0.84416 2.18309L0 2.08674V1.05571V0.0246925L0.538846 0.0257759C0.835164 0.0263596 1.45723 0.0969601 1.9211 0.182568C3.79928 0.529158 5.34441 1.27044 6.70849 2.47926C8.02168 3.64306 8.79406 4.81829 9.30394 6.42846C9.49952 7.04613 9.50758 7.24026 9.53673 12.0487L9.5669 17.0292H4.78345H0V12.7781ZM14.4317 12.7781V8.52693H18.0062H21.5806L21.5303 7.87384C21.4712 7.10731 21.0693 5.99493 20.6041 5.31025C19.3854 3.51678 17.3603 2.37039 15.0174 2.14783L14.4317 2.09224V1.04613V1.90735e-05L15.2517 0.0496159C16.4063 0.119467 17.4072 0.37195 18.6019 0.894838C21.163 2.01563 22.9232 3.93114 23.6912 6.43313L23.9373 7.23493L23.9687 12.1321L24 17.0292H19.2159H14.4317V12.7781ZM7.21585 12.8197V10.6942H4.82618H2.43652V12.8197V14.9453H4.82618H7.21585V12.8197ZM21.5538 12.8197V10.6942H19.1642H16.7745V12.8197V14.9453H19.1642H21.5538V12.8197Z" fill="#F37825"/>
</svg>
